<svg xmlns="http://www.w3.org/2000/svg" width="217" height="217" viewBox="0 0 217 217">
<g>
<path d="M 31.74 161.85 L 10.00 148.93 L 10.01 124.22 L 10.02 99.50 L 17.76 95.05 C22.02,92.61 31.53,87.10 38.90,82.80 C46.27,78.51 52.74,75.00 53.29,75.00 C53.84,75.00 63.90,80.51 75.64,87.25 L 96.99 99.50 L 96.99 121.33 C97.00,138.36 96.72,143.08 95.75,142.75 C94.82,142.44 94.43,137.32 94.23,122.67 C94.08,111.85 93.79,103.00 93.58,103.00 C92.85,103.00 57.50,124.22 56.23,125.42 C55.26,126.33 55.02,131.87 55.23,148.78 L 55.50 170.94 L 71.50 161.49 C86.53,152.61 90.06,150.94 89.96,152.75 C89.92,153.38 79.16,159.92 58.04,172.13 L 53.48 174.76 L 31.74 161.85 ZM 51.99 148.25 L 51.97 125.50 L 32.63 114.25 C22.00,108.06 13.01,103.00 12.65,103.00 C12.29,103.00 12.00,113.01 12.00,125.25 L 12.00 147.50 L 31.75 159.23 C42.61,165.68 51.61,170.97 51.75,170.98 C51.89,170.99 51.99,160.76 51.99,148.25 ZM 77.80 109.53 C86.14,104.60 92.64,100.24 92.23,99.85 C91.83,99.45 84.97,95.36 77.00,90.76 C69.03,86.16 60.47,81.20 57.99,79.74 L 53.48 77.09 L 35.49 87.47 C25.59,93.18 16.68,98.45 15.68,99.18 C14.04,100.37 15.87,101.69 33.68,112.18 L 53.50 123.85 L 58.07 121.18 C60.58,119.70 69.46,114.47 77.80,109.53 ZM 150.17 164.11 C140.19,158.27 132.02,153.16 132.01,152.75 C131.98,151.05 134.93,152.45 150.33,161.48 L 166.50 170.96 L 166.77 149.26 C166.92,137.32 166.85,127.04 166.61,126.43 C166.22,125.40 128.91,103.00 127.59,103.00 C127.26,103.00 127.00,111.75 127.00,122.44 C127.00,134.32 126.61,142.12 126.00,142.50 C125.34,142.90 125.00,135.60 125.01,121.31 L 125.01 99.50 L 145.71 87.50 C157.09,80.90 167.10,75.40 167.95,75.28 C168.80,75.16 178.95,80.58 190.50,87.33 L 211.50 99.61 L 211.77 124.20 L 212.03 148.79 L 207.77 151.30 C205.42,152.68 195.58,158.51 185.91,164.26 L 168.31 174.71 L 150.17 164.11 ZM 191.75 158.06 L 209.00 147.77 L 209.00 125.39 C209.00,113.07 208.74,103.00 208.42,103.00 C207.31,103.00 170.50,125.27 169.77,126.38 C168.85,127.78 168.76,169.42 169.67,170.34 C170.04,170.71 171.28,170.41 172.42,169.68 C173.56,168.95 182.26,163.72 191.75,158.06 ZM 194.75 108.07 C201.49,104.04 206.99,100.46 206.99,100.12 C206.98,99.78 204.84,98.32 202.24,96.88 C199.63,95.43 190.92,90.43 182.88,85.75 L 168.26 77.25 L 148.99 88.38 C138.39,94.50 129.75,99.88 129.80,100.35 C129.85,100.81 138.53,106.28 149.08,112.50 L 168.27 123.81 L 175.38 119.60 C179.30,117.29 188.01,112.10 194.75,108.07 ZM 91.99 150.91 C82.37,145.36 73.94,140.36 73.25,139.79 C71.86,138.64 71.52,134.00 72.83,134.00 C73.28,134.00 81.87,138.73 91.91,144.50 C101.94,150.27 110.54,155.00 111.01,155.00 C111.48,155.00 119.97,150.27 129.86,144.50 C139.75,138.73 148.11,134.00 148.42,134.00 C148.74,134.00 149.00,135.28 149.00,136.84 C149.00,139.47 147.65,140.47 130.61,150.34 C120.50,156.20 111.61,161.00 110.85,161.00 C110.09,161.00 101.60,156.46 91.99,150.91 ZM 74.18 83.67 C72.95,83.12 72.09,82.22 72.28,81.66 C72.68,80.47 108.94,59.15 110.72,59.06 C111.68,59.01 149.40,80.13 150.84,81.52 C151.02,81.70 149.95,82.49 148.44,83.28 C145.80,84.66 145.13,84.38 128.32,74.76 L 110.93 64.80 L 93.67 74.73 C78.96,83.19 76.08,84.51 74.18,83.67 Z" fill="rgba(209,210,209,1)"/>
</g>
</svg>