<?xml version="1.0" encoding="UTF-8"?>
<svg version="1.1" xmlns="http://www.w3.org/2000/svg" width="500" height="500">
<path d="M0 0 C2.79223848 1.82157319 5.56275674 3.67244403 8.32885742 5.53344727 C16.04612697 10.65156877 23.81937193 15.43845935 31.96044922 19.84643555 C39.63228343 24.01181526 47.01487694 28.58366555 54.32885742 33.34594727 C54.94728516 33.7473291 55.56571289 34.14871094 56.20288086 34.56225586 C57.98327657 35.72694322 59.7518593 36.90734233 61.51635742 38.09594727 C63.02262695 39.10915039 63.02262695 39.10915039 64.55932617 40.14282227 C69.65715038 44.19807311 72.61000386 48.07740672 74.32885742 54.34594727 C74.60733032 57.4183197 74.60733032 57.4183197 74.64770508 60.72070312 C74.67750961 62.59072243 74.67750961 62.59072243 74.70791626 64.4985199 C74.71982 65.85260822 74.73148116 67.20669869 74.74291992 68.56079102 C74.76169047 69.97686313 74.78126793 71.39292474 74.80160522 72.80897522 C74.85288416 76.54338011 74.89244187 80.27782318 74.92974854 84.01239014 C74.96918381 87.72719299 75.02083733 91.44182419 75.07104492 95.15649414 C75.15635105 101.58633589 75.22082137 108.01614099 75.27199173 114.44634056 C75.30806518 118.73925545 75.37467803 123.03074181 75.45678711 127.32299805 C75.48483852 129.37361134 75.51253549 131.42422954 75.53979492 133.47485352 C75.5635318 134.37380844 75.58726868 135.27276337 75.61172485 136.19895935 C75.67334154 142.8991484 74.63664234 148.46121611 70.32885742 153.84594727 C62.1217335 160.6852172 53.26988453 166.37173525 44.07885742 171.78344727 C42.97695068 172.43885498 41.87504395 173.0942627 40.73974609 173.76953125 C37.60564485 175.63321904 34.46800673 177.49077844 31.32885742 179.34594727 C21.44900456 185.19036727 11.72208435 191.22904081 2.08984375 197.47509766 C-14.57577382 208.2004652 -14.57577382 208.2004652 -24.67114258 206.34594727 C-34.24416851 202.91070835 -42.6562597 196.8879128 -51.08398438 191.31347656 C-56.28206552 187.87568032 -61.52388501 184.58598459 -66.92114258 181.47094727 C-74.08142595 177.32264606 -81.1412166 173.02402915 -88.17114258 168.65844727 C-89.17435547 168.04050293 -90.17756836 167.42255859 -91.21118164 166.78588867 C-110.46325907 154.77821583 -110.46325907 154.77821583 -113.25611496 145.37678909 C-113.9655732 141.90521902 -113.82737538 138.37867556 -113.83227539 134.84887695 C-113.8372403 133.99307541 -113.8422052 133.13727386 -113.84732056 132.25553894 C-113.86191646 129.42629184 -113.86874036 126.59710083 -113.87426758 123.76782227 C-113.88002171 121.79730224 -113.88577941 119.82678222 -113.89154053 117.85626221 C-113.90204359 113.72375223 -113.90789062 109.59126167 -113.91137695 105.45874023 C-113.91685631 100.17512264 -113.9408754 94.89176344 -113.96934891 89.60822678 C-113.98801568 85.53661358 -113.99318307 81.46506209 -113.99471283 77.39340973 C-113.9977314 75.44624674 -114.00573297 73.49908463 -114.01889801 71.55196381 C-114.03604094 68.8213106 -114.03405807 66.09128157 -114.02758789 63.3605957 C-114.03680267 62.56342636 -114.04601746 61.76625702 -114.05551147 60.94493103 C-114.00901877 54.64970942 -112.89145297 49.03495184 -108.76977539 44.04321289 C-103.26356711 39.44676956 -97.58071553 35.51650593 -91.42114258 31.84594727 C-90.04406128 31.01075562 -90.04406128 31.01075562 -88.63916016 30.15869141 C-86.81736024 29.05388581 -84.99360774 27.95229228 -83.16772461 26.85424805 C-80.99980508 25.5445075 -78.84511453 24.21752517 -76.69848633 22.87329102 C-75.59633789 22.18364258 -74.49418945 21.49399414 -73.35864258 20.78344727 C-72.43438477 20.2046582 -71.51012695 19.62586914 -70.55786133 19.02954102 C-68.33157674 17.73112605 -66.14079265 16.58079151 -63.82739258 15.45922852 C-59.48898479 13.32258447 -55.50924962 10.76610741 -51.48364258 8.09594727 C-49.99332788 7.12241678 -48.50243619 6.14976903 -47.01098633 5.17797852 C-46.27992676 4.70054199 -45.54886719 4.22310547 -44.7956543 3.73120117 C-41.72436346 1.72861508 -38.64511527 -0.25685555 -35.54614258 -2.21655273 C-34.57418945 -2.8365918 -33.60223633 -3.45663086 -32.60083008 -4.09545898 C-20.54586689 -10.5086994 -10.84044446 -6.71273295 0 0 Z " fill="#222125" transform="translate(268.671142578125,150.654052734375)"/>
<path d="M0 0 C0.33 0 0.66 0 1 0 C1.13255238 8.20807147 1.26305247 16.41617225 1.39115143 24.62431431 C1.45073579 28.43844223 1.51094643 32.2525578 1.57275391 36.06665039 C1.70181601 44.05482035 1.82189752 52.04296597 1.92019653 60.03157997 C1.97439448 64.35599362 2.05120991 68.67952598 2.13671875 73.00341797 C2.16492625 75.05304819 2.19233402 77.10268966 2.21875 79.15234375 C2.24199341 80.04981827 2.26523682 80.94729279 2.28918457 81.8719635 C2.34575358 88.56161303 1.30012816 94.1248398 -3 99.5 C-11.20707021 106.33922518 -20.05882548 112.02611329 -29.25 117.4375 C-30.34030518 118.08565674 -31.43061035 118.73381348 -32.55395508 119.40161133 C-34.71456543 120.68587005 -36.87639128 121.96808651 -39.03955078 123.24804688 C-42.92905837 125.54980396 -46.80985128 127.86584084 -50.6875 130.1875 C-51.78449219 130.84105469 -52.88148438 131.49460937 -54.01171875 132.16796875 C-56.13314277 133.46855419 -58.21622632 134.83261372 -60.26953125 136.23828125 C-63 138 -63 138 -65 138 C-65 137.34 -65 136.68 -65 136 C-65.64066406 135.77957031 -66.28132813 135.55914062 -66.94140625 135.33203125 C-71.17532593 133.48814031 -75.00158232 131.09269779 -78.9375 128.6875 C-80.73522682 127.59821489 -82.53342078 126.50970043 -84.33203125 125.421875 C-85.26354004 124.85791016 -86.19504883 124.29394531 -87.15478516 123.71289062 C-92.61416705 120.42620594 -98.11182508 117.20394603 -103.60913086 113.98120117 C-105.35362732 112.95461977 -107.07676837 111.89118574 -108.78100586 110.79907227 C-111.4524625 109.3060147 -113.76641098 108.3499437 -116.62719727 107.35522461 C-122.07126762 105.19577016 -126.62279262 102.93485587 -130 98 C-133.07693558 87.76736306 -132.16830666 76.62779386 -131.76055908 66.07220459 C-131.66299903 62.8877695 -131.66634442 59.7068228 -131.67180157 56.52115154 C-131.6693488 53.44288544 -131.61992705 50.3668407 -131.55478859 47.28931618 C-131.52628844 45.82354295 -131.50844395 44.35752019 -131.50174522 42.89148521 C-131.39297064 31.54126492 -131.39297064 31.54126492 -128.01889038 27.8079834 C-125.7311296 26.25928077 -123.52800294 25.10180444 -121 24 C-119.83100859 23.32804253 -118.66872922 22.64418188 -117.515625 21.9453125 C-116.43796875 21.34460938 -115.3603125 20.74390625 -114.25 20.125 C-110.55598501 18.06278745 -106.90711347 15.97051891 -103.3515625 13.67578125 C-102.47516113 13.11383057 -102.47516113 13.11383057 -101.58105469 12.54052734 C-99.96185015 11.49365183 -98.35173682 10.43275408 -96.7421875 9.37109375 C-94 8 -94 8 -92.12353516 8.24316406 C-89.6121857 9.13821848 -87.54908114 10.33388424 -85.28125 11.73828125 C-84.35940918 12.30490479 -83.43756836 12.87152832 -82.48779297 13.45532227 C-81.50182129 14.06819092 -80.51584961 14.68105957 -79.5 15.3125 C-77.40923031 16.59956955 -75.31807781 17.88601745 -73.2265625 19.171875 C-72.17758789 19.81833984 -71.12861328 20.46480469 -70.04785156 21.13085938 C-65.67817566 23.81062858 -61.27782618 26.43769572 -56.875 29.0625 C-50.14731593 33.08324609 -43.46873899 37.17442876 -36.8125 41.3125 C-24.94343407 48.65348297 -12.96701216 55.8197927 -1 63 C-0.67 42.21 -0.34 21.42 0 0 Z " fill="#E8E8E8" transform="translate(342,205)"/>
<path d="M0 0 C0.66 0.33 1.32 0.66 2 1 C1.67 1.99 1.34 2.98 1 4 C1.83273438 4.23332031 2.66546875 4.46664062 3.5234375 4.70703125 C7.62151723 6.23114854 10.97519402 8.31262625 14.625 10.6875 C15.92832343 11.52686144 17.23305439 12.36404068 18.5390625 13.19921875 C19.18813568 13.63183014 19.83720886 14.06444153 20.50595093 14.51016235 C23.02104958 16.09338304 23.02104958 16.09338304 26.0194397 17.25778198 C29.53898715 18.8538374 32.16660118 20.35765072 35 23 C36.68042603 28.18267844 36.40551622 33.19258685 36.171875 38.55859375 C36.14946706 40.07309724 36.13239792 41.58768828 36.12042236 43.10231018 C36.07479731 47.071646 35.95713886 51.03563373 35.82397461 55.00286865 C35.70076778 59.05781684 35.64631899 63.11363785 35.5859375 67.16992188 C35.45758957 75.11572452 35.2530649 83.05719551 35 91 C28.42073369 88.85900344 28.42073369 88.85900344 25.44140625 86.93359375 C24.80654297 86.52947266 24.17167969 86.12535156 23.51757812 85.70898438 C22.54981445 85.07959961 22.54981445 85.07959961 21.5625 84.4375 C20.2941559 83.62184893 19.02455792 82.80814532 17.75390625 81.99609375 C17.05531494 81.50681396 16.35672363 81.01753418 15.63696289 80.51342773 C13.34920722 79.20041992 11.64961047 78.56939075 9.15795898 77.86352539 C4.36807114 76.23470648 0.69885958 74.42806013 -2 70 C-4.53310968 59.66170049 -3.56343517 48.52623727 -3.14654541 37.97637939 C-3.03421106 34.75000958 -2.98613646 31.5241637 -2.94144535 28.29625034 C-2.84876564 21.63834701 -2.71508322 14.98038006 -2.46508789 8.32641602 C-2.42428604 7.14999039 -2.38348419 5.97356476 -2.34144592 4.76148987 C-2 2 -2 2 0 0 Z " fill="#B4B4B9" transform="translate(214,233)"/>
<path d="M0 0 C2.65061534 0.93835324 4.83377905 2.23405813 7.22680664 3.71264648 C8.20649414 4.31399414 9.18618164 4.9153418 10.19555664 5.53491211 C11.21391602 6.16719727 12.23227539 6.79948242 13.28149414 7.45092773 C15.28392134 8.68428801 17.28652413 9.91736326 19.28930664 11.15014648 C20.26287109 11.75391113 21.23643555 12.35767578 22.23950195 12.97973633 C25.91505988 15.22727786 29.64312375 17.3801976 33.38647461 19.51269531 C33.97058105 19.92543701 34.5546875 20.33817871 35.15649414 20.76342773 C35.15649414 21.42342773 35.15649414 22.08342773 35.15649414 22.76342773 C34.16649414 22.76342773 33.17649414 22.76342773 32.15649414 22.76342773 C31.66149414 24.24842773 31.66149414 24.24842773 31.15649414 25.76342773 C29.18476374 26.81807423 27.17886466 27.80947938 25.15649414 28.76342773 C24.16649414 29.42342773 23.17649414 30.08342773 22.15649414 30.76342773 C19.15649414 32.76342773 19.15649414 32.76342773 16.21899414 34.20092773 C13.75851558 35.45627394 11.79246069 36.69849146 9.59399414 38.32592773 C5.98566859 40.94512896 3.15395642 42.87091449 -1.45678711 42.62280273 C-6.04900166 41.45753491 -9.50824509 39.18167212 -13.46850586 36.63842773 C-15.06164834 35.63876098 -16.6554007 34.64006552 -18.24975586 33.64233398 C-19.02706055 33.15265137 -19.80436523 32.66296875 -20.60522461 32.15844727 C-25.28231251 29.24342978 -30.06527965 26.50856553 -34.84350586 23.76342773 C-34.32936704 19.19017245 -34.32936704 19.19017245 -32.19213867 17.31298828 C-31.48412109 16.92925049 -30.77610352 16.5455127 -30.04663086 16.15014648 C-29.25844971 15.71025391 -28.47026855 15.27036133 -27.65820312 14.81713867 C-26.81185303 14.36628906 -25.96550293 13.91543945 -25.09350586 13.45092773 C-23.35677356 12.49320335 -21.62110021 11.53355625 -19.88647461 10.57202148 C-19.02973145 10.10135254 -18.17298828 9.63068359 -17.2902832 9.14575195 C-12.86610091 6.64627878 -8.64474404 3.83386971 -4.40991211 1.02905273 C-1.84350586 -0.23657227 -1.84350586 -0.23657227 0 0 Z " fill="#FBFBFB" transform="translate(249.843505859375,213.236572265625)"/>
<path d="M0 0 C-0.66 0.66 -1.32 1.32 -2 2 C-2 1.34 -2 0.68 -2 0 C-3.32 0.33 -4.64 0.66 -6 1 C-6.495 -0.98 -6.495 -0.98 -7 -3 C-8.98 -3.33 -10.96 -3.66 -13 -4 C-13 -4.99 -13 -5.98 -13 -7 C-16.37817425 -7.84454356 -18.67465243 -8.10844919 -22 -7 C-22.33 -7.66 -22.66 -8.32 -23 -9 C-23.99 -8.34 -24.98 -7.68 -26 -7 C-26 -7.99 -26 -8.98 -26 -10 C-26.99 -10.33 -27.98 -10.66 -29 -11 C-29.33 -10.34 -29.66 -9.68 -30 -9 C-30 -9.66 -30 -10.32 -30 -11 C-30.86625 -10.67 -31.7325 -10.34 -32.625 -10 C-35.95718275 -9.01268659 -38.55159538 -8.83579026 -42 -9 C-31.06763847 -23.14776198 -9.8064556 -6.79038077 0 0 Z " fill="#333335" transform="translate(278,157)"/>
<path d="M0 0 C6.00295033 1.55486254 10.73574573 4.78912863 15.875 8.125 C16.75414062 8.68832031 17.63328125 9.25164062 18.5390625 9.83203125 C20.69650085 11.21560584 22.84992109 12.60502727 25 14 C21.09644308 15.95177846 16.08025075 14.14247021 12 13 C11.938125 12.071875 11.938125 12.071875 11.875 11.125 C11.58625 10.42375 11.2975 9.7225 11 9 C8.00384054 7.6954344 8.00384054 7.6954344 5 7 C5 6.34 5 5.68 5 5 C3.68 5.33 2.36 5.66 1 6 C0.67 4.02 0.34 2.04 0 0 Z " fill="#828284" transform="translate(296,169)"/>
<path d="M0 0 C1.40765625 0.27457031 1.40765625 0.27457031 2.84375 0.5546875 C5.07689046 1.03415589 7.28944967 1.55150817 9.5 2.125 C5.85883 3.78727326 2.99709631 4.3974556 -1 4.375 C-1.9178125 4.38015625 -2.835625 4.3853125 -3.78125 4.390625 C-6.6778282 4.10762598 -8.86375653 3.32850245 -11.5 2.125 C-7.89232297 -1.48267703 -4.79343419 -0.96132059 0 0 Z " fill="#79797A" transform="translate(250.5,352.875)"/>
<path d="M0 0 C3.64110179 0.55909966 6.14400253 1.46968107 9.20703125 3.50390625 C10.33334961 4.24350586 10.33334961 4.24350586 11.48242188 4.99804688 C12.25134766 5.51431641 13.02027344 6.03058594 13.8125 6.5625 C14.60076172 7.08263672 15.38902344 7.60277344 16.20117188 8.13867188 C18.13892853 9.41876566 20.07152677 10.7059808 22 12 C21.34 12.66 20.68 13.32 20 14 C20 13.34 20 12.68 20 12 C18.68 12.33 17.36 12.66 16 13 C15.67 11.68 15.34 10.36 15 9 C12.03 8.505 12.03 8.505 9 8 C9 7.01 9 6.02 9 5 C7.68 5 6.36 5 5 5 C3.375 3.625 3.375 3.625 2 2 C1.34 1.34 0.68 0.68 0 0 Z " fill="#99999B" transform="translate(256,145)"/>
<path d="M0 0 C5.66710699 1.31793186 7.66437233 3.48709197 11 8 C8 8 8 8 5 7 C5 6.34 5 5.68 5 5 C3.68 5.33 2.36 5.66 1 6 C0.67 4.02 0.34 2.04 0 0 Z " fill="#5E5E61" transform="translate(296,169)"/>
<path d="M0 0 C-0.75 2.4375 -0.75 2.4375 -2 5 C-4.0625 5.6875 -4.0625 5.6875 -6 6 C-6.33 6.66 -6.66 7.32 -7 8 C-8.65 7.67 -10.3 7.34 -12 7 C-3.55172414 0 -3.55172414 0 0 0 Z " fill="#343338" transform="translate(194,175)"/>
<path d="M0 0 C0 0.66 0 1.32 0 2 C-0.66 2 -1.32 2 -2 2 C-2.66 3.32 -3.32 4.64 -4 6 C-4 5.34 -4 4.68 -4 4 C-4.53625 4.639375 -5.0725 5.27875 -5.625 5.9375 C-8.44367193 8.38529404 -10.33860732 8.66714612 -14 9 C-10.73787201 5.33010602 -5.2007339 0 0 0 Z " fill="#8B8B8E" transform="translate(220,158)"/>
<path d="M0 0 C0.89203125 0.10183594 1.7840625 0.20367187 2.703125 0.30859375 C3.37859375 0.39238281 4.0540625 0.47617188 4.75 0.5625 C4.75 0.8925 4.75 1.2225 4.75 1.5625 C3.84636719 1.61148438 2.94273437 1.66046875 2.01171875 1.7109375 C0.83222656 1.78570312 -0.34726563 1.86046875 -1.5625 1.9375 C-3.32013672 2.04191406 -3.32013672 2.04191406 -5.11328125 2.1484375 C-8.40699887 2.34863747 -8.40699887 2.34863747 -11.25 4.5625 C-13.4375 4.1875 -13.4375 4.1875 -15.25 3.5625 C-9.72280008 0.67328186 -6.2153412 -0.73602725 0 0 Z " fill="#BABABA" transform="translate(251.25,143.4375)"/>
<path d="M0 0 C0.66 0.66 1.32 1.32 2 2 C1.67 2.66 1.34 3.32 1 4 C1.99 4 2.98 4 4 4 C4.33 5.65 4.66 7.3 5 9 C0.32307692 7.52307692 0.32307692 7.52307692 -1.3125 4.875 C-1.539375 4.25625 -1.76625 3.6375 -2 3 C-1.34 2.01 -0.68 1.02 0 0 Z " fill="#403E41" transform="translate(213,332)"/>
<path d="M0 0 C-0.66 1.32 -1.32 2.64 -2 4 C-3.65 4 -5.3 4 -7 4 C-7 4.66 -7 5.32 -7 6 C-8.98 6.33 -10.96 6.66 -13 7 C-9.67790929 3.14637478 -5.30135789 0 0 0 Z " fill="#646367" transform="translate(179,184)"/>
<path d="M0 0 C3.37503669 1.1858237 5.64722731 2.27573689 8 5 C4.37673261 6.2077558 3.35853631 5.54311128 0 4 C0 2.68 0 1.36 0 0 Z " fill="#757577" transform="translate(321,184)"/>
<path d="M0 0 C0.598125 0.350625 1.19625 0.70125 1.8125 1.0625 C1.4825 1.7225 1.1525 2.3825 0.8125 3.0625 C-1.4975 3.0625 -3.8075 3.0625 -6.1875 3.0625 C-5.8575 2.0725 -5.5275 1.0825 -5.1875 0.0625 C-2.1875 -0.9375 -2.1875 -0.9375 0 0 Z " fill="#626263" transform="translate(206.1875,167.9375)"/>
<path d="M0 0 C-0.66 1.32 -1.32 2.64 -2 4 C-3.32 3.67 -4.64 3.34 -6 3 C-6 2.01 -6 1.02 -6 0 C-2.25 -1.125 -2.25 -1.125 0 0 Z " fill="#0F0D11" transform="translate(176,308)"/>
<path d="M0 0 C-0.33 1.32 -0.66 2.64 -1 4 C-3.31 4.33 -5.62 4.66 -8 5 C-3.16129032 0 -3.16129032 0 0 0 Z " fill="#949495" transform="translate(228,153)"/>
<path d="M0 0 C1.32 0.33 2.64 0.66 4 1 C3.34 2.32 2.68 3.64 2 5 C0.68 4.67 -0.64 4.34 -2 4 C-1.34 2.68 -0.68 1.36 0 0 Z " fill="#0C090D" transform="translate(208,329)"/>
<path d="M0 0 C0.33 0.66 0.66 1.32 1 2 C1.66 2 2.32 2 3 2 C3.33 3.32 3.66 4.64 4 6 C1.97954558 5.39816251 -0.02111039 4.72693904 -2 4 C-2.33 3.34 -2.66 2.68 -3 2 C-2.01 1.34 -1.02 0.68 0 0 Z " fill="#6D6A6E" transform="translate(203,328)"/>
<path d="M0 0 C2.375 0.25 2.375 0.25 5 1 C6.3125 3.0625 6.3125 3.0625 7 5 C6.01 5.33 5.02 5.66 4 6 C2.66666667 4 1.33333333 2 0 0 Z " fill="#0D0B10" transform="translate(227,313)"/>
<path d="M0 0 C-0.33 1.32 -0.66 2.64 -1 4 C-3.31 4.33 -5.62 4.66 -8 5 C-3.16129032 0 -3.16129032 0 0 0 Z " fill="#99989A" transform="translate(236,148)"/>
<path d="M0 0 C1.98 0 3.96 0 6 0 C5.67 1.32 5.34 2.64 5 4 C2.525 3.01 2.525 3.01 0 2 C0 1.34 0 0.68 0 0 Z " fill="#110C12" transform="translate(256,332)"/>
<path d="M0 0 C3.26954202 0.56371414 4.82575883 1.49962266 7 4 C6.01 4.495 6.01 4.495 5 5 C5 4.34 5 3.68 5 3 C3.68 3.33 2.36 3.66 1 4 C0.67 2.68 0.34 1.36 0 0 Z " fill="#7E7E7F" transform="translate(271,154)"/>
</svg>
